<svg version="1" xmlns="http://www.w3.org/2000/svg" width="413.333" height="413.333" viewBox="0 0 310.000000 310.000000"><path d="M149.8 18.5c-2 1.4-3.9 2.5-4.2 2.5-.2 0-4.3 2.3-9 5.1l-8.7 5.1-3.1-2c-2.9-1.9-3.3-1.9-6.5-.4s-4 3.6-3.4 8.7c0 .6-6.1 4.7-13.6 9-7.6 4.4-14.7 8.5-15.8 9.2-1.1.7-2.6 1.5-3.4 1.9-1.3.7-5.2 2.9-26.1 15.1l-8.5 4.9v69.2l-2.6 2.1c-1.5 1.1-2.9 1.7-3.3 1.4-.3-.3-.6 1.4-.6 4 0 4.1.3 4.7 3.3 6.6l3.3 2-.1 34.7v34.7l3.5 2.2c1.9 1.2 5.5 3.2 8 4.6 2.5 1.3 4.7 2.7 4.8 3.1.2.5.8.8 1.3.8.6 0 4.9 2.3 9.7 5.1 4.8 2.9 10.3 6.1 12.2 7.2 4.3 2.4 18.7 10.8 21.5 12.4 1.1.7 3 1.8 4.3 2.4 1.2.7 2.2 2 2.1 2.8-.5 5.2.2 6.8 3.4 8.3 3.2 1.5 3.6 1.5 6.5-.4l3.2-2 13 7.6c7.1 4.2 13.5 7.6 14.2 7.6.8 0 2.2-.6 3.3-1.4 1.6-1 22.1-12.9 39-22.6 1.7-1 7-4.1 11.8-6.9 4.9-2.8 9.3-5.1 9.8-5.1s.9-.5.9-1c0-.6.4-1 1-1 .5 0 7.5-3.8 15.5-8.5 7.9-4.7 15.1-8.5 15.9-8.5.8 0 2.8.8 4.5 1.8 2 1.1 3.4 1.3 3.9.7.4-.6 1.6-1.5 2.7-2.1 1.9-1.1 2-2.2 2.2-20.6l.1-19.4-4.6-2.5c-2.6-1.3-4.8-2.7-5-3.2-.2-.4-.7-.7-1.2-.7s-5.7-2.9-11.7-6.4c-10.8-6.4-10.8-6.4-13.8-4.8-3.9 2.2-4.3 2.8-4 6.7.2 3.6 3.8 1.2-37.5 24.9-6.3 3.6-12.2 7.1-13 7.6-.8.6-2.7 1.6-4.2 2.3-1.6.6-2.8 1.5-2.8 1.9 0 .4-.4.8-1 .8-.5 0-3.2 1.4-6 3-2.8 1.7-5.3 3-5.5 3-.2 0-.5-1.7-.7-3.7-.2-2.9-1-4.1-3.5-5.5-3-1.8-3.2-1.8-6.4.1-1.9 1.1-3.8 1.7-4.3 1.2-.6-.4-3.6-2.2-6.6-3.8-8.9-4.9-30.4-17.4-31.6-18.4-.8-.6-1.1-7-1-20.1l.1-19.1 3.2-1.6c2.9-1.4 3.3-2.1 3.3-5.8 0-3.6-.4-4.3-3.2-6l-3.3-1.9-.1-19.6c0-18.9 0-19.7 2-20.6 1.2-.5 6.7-3.7 12.4-7.1 5.6-3.3 10.7-6.1 11.2-6.1.6 0 1-.5 1-1 0-.6.9-1 1.9-1 1.1 0 2.1-.4 2.3-.8.2-.5 2.4-2.1 4.9-3.5 4.7-2.5 4.7-2.5 7.8-.6 2.9 1.8 3.3 1.8 6.6.2 3.1-1.5 3.5-2.1 3.5-5.5 0-2.1.2-3.8.4-3.8s10.3 5.7 22.3 12.6c12 7 23.4 13.5 25.3 14.6 5.9 3.4 5.9 3.3 5.7 13.1-.1 8.2-.4 9.4-2.3 10.9-1.2 1-2.7 1.8-3.3 1.8-.6 0-1.1 1.8-1.1 4.2 0 3.8.4 4.5 3.3 6.2 3.3 1.9 7.3 4.2 13 7.5 1.7 1 6.3 3.7 10.2 5.9l7 4.1 5.5-3.1c3-1.8 8.8-5.1 12.8-7.5 4.1-2.4 7.8-4.3 8.3-4.3.5 0 .9-.3.9-.8 0-.4 1.4-1.3 3-2 2.7-1.2 3-1.9 3-5.6 0-3.8-.3-4.4-3.2-5.8l-3.3-1.5V77.7l-7.3-4.4c-4.1-2.4-7.8-4.3-8.3-4.3-.5 0-.9-.4-.9-.9s-1.2-1.4-2.7-2c-1.6-.6-4.9-2.3-7.4-3.8-2.6-1.6-7.1-4.2-10-5.9-3-1.7-7-4-8.9-5.1-6-3.5-35.3-20.4-39.3-22.7-2.1-1.1-4.6-2.6-5.5-3.1-17.6-10.5-17.4-10.4-22.4-7z"/></svg>